<?xml version="1.0" encoding="utf-8"?>
<!-- Generator: Adobe Illustrator 17.0.0, SVG Export Plug-In . SVG Version: 6.00 Build 0)  -->
<!DOCTYPE svg PUBLIC "-//W3C//DTD SVG 1.1//EN" "http://www.w3.org/Graphics/SVG/1.1/DTD/svg11.dtd">
<svg version="1.1" xmlns="http://www.w3.org/2000/svg" xmlns:xlink="http://www.w3.org/1999/xlink" x="0px" y="0px" width="500px"
	 height="500px" viewBox="0 0 500 500" enable-background="new 0 0 500 500" xml:space="preserve">
<g id="Floor">
	<path id="Floor_5_" fill="#F5F5F5" d="M407.51,431.19c-87.422,48.426-229.162,48.427-316.582,0.001
		c-87.422-48.427-87.422-126.941,0-175.367c87.422-48.427,229.161-48.427,316.583-0.001
		C494.933,304.248,494.933,382.764,407.51,431.19z"/>
</g>
<g id="Shadow">
	<path id="Shadow_6_" fill="#E0E0E0" d="M116.856,416.413l-4.845-2.797c-3.286-1.897-3.286-4.973,0-6.871l135.466-78.488
		c3.286-1.897,8.614-1.897,11.9,0l4.846,2.798c3.286,1.897,3.286,4.973,0,6.87l-135.468,78.488
		C125.47,418.31,120.142,418.31,116.856,416.413z"/>
	<path id="Shadow_5_" fill="#E0E0E0" d="M385.552,384.135c-20.076,9.57-52.626,9.57-72.702,0c-20.076-9.567-20.076-25.082,0-34.651
		c20.076-9.567,52.625-9.567,72.702,0C405.628,359.054,405.628,374.568,385.552,384.135z"/>
</g>
<g id="Plants">
	<g id="Plants_2_">
		<g id="XMLID_1284_">
			<g id="XMLID_1288_">
				<path id="XMLID_1290_" fill="#27DEBF" d="M358.93,330.827c0.602-7.483,7.261-22.548,15.807-31.639
					c8.547-9.092,21.327-15.214,29.76-11.55c7.855,3.413,6.128,13.939-4.237,20.173c-10.365,6.234-25.805,13.87-31.091,25.662
					l-10.24,14.166V330.827z"/>
				<path id="XMLID_1289_" opacity="0.1" d="M358.93,330.827c0.602-7.483,7.261-22.548,15.807-31.639
					c8.547-9.092,21.327-15.214,29.76-11.55c7.855,3.413,6.128,13.939-4.237,20.173c-10.365,6.234-25.805,13.87-31.091,25.662
					l-10.24,14.166V330.827z"/>
			</g>
			<g id="XMLID_1286_">
				<path id="XMLID_1287_" fill="#FFFFFF" d="M357.555,341.022c0.24,0,0.46-0.159,0.528-0.4
					c7.065-25.141,29.399-44.242,42.136-47.835c0.291-0.082,0.461-0.386,0.379-0.677c-0.081-0.29-0.378-0.466-0.677-0.379
					c-12.98,3.661-35.723,23.072-42.894,48.594c-0.082,0.291,0.088,0.594,0.379,0.676
					C357.456,341.015,357.506,341.022,357.555,341.022z"/>
			</g>
		</g>
		<g id="XMLID_1277_">
			<g id="XMLID_1281_">
				<path id="XMLID_1283_" fill="#27DEBF" d="M360.05,357.679c1.54-4.11,7.236-10.638,16.007-15.704
					c9.703-5.604,21.571-7.585,24.65-12.306c3.699-5.671-0.85-11.677-10.387-11.265c-9.537,0.412-27.176,11.96-31.389,31.144
					L360.05,357.679z"/>
			</g>
			<g id="XMLID_1278_">
				<path id="XMLID_1279_" fill="#FFFFFF" d="M358.577,353.118c0.209,0,0.408-0.12,0.5-0.323
					c9.593-21.254,26.907-27.592,34.721-27.974c0.302-0.014,0.536-0.272,0.521-0.575c-0.014-0.303-0.26-0.536-0.575-0.521
					c-8.641,0.422-25.876,6.925-35.668,28.619c-0.124,0.276-0.001,0.601,0.275,0.726
					C358.425,353.103,358.502,353.118,358.577,353.118z"/>
			</g>
		</g>
	</g>
	<g id="Plants_1_">
		<g id="XMLID_1250_">
			<path id="XMLID_1251_" fill="#27DEBF" d="M113.683,372.699c-0.67-8.329-4.483-22.01-14.167-35.028
				c-10.364-13.932-22.999-22.651-32.386-18.573c-8.743,3.798-5.428,15.863,9.618,27.767c10.558,8.353,21.506,19.219,27.389,32.344
				l9.546,16.7V372.699z"/>
		</g>
		<g id="XMLID_1248_" opacity="0.1">
			<path id="XMLID_1249_" d="M113.683,372.699c-0.67-8.329-4.483-22.01-14.167-35.028c-10.364-13.932-22.999-22.651-32.386-18.573
				c-8.743,3.798-5.428,15.863,9.618,27.767c10.558,8.353,21.506,19.219,27.389,32.344l9.546,16.7V372.699z"/>
		</g>
		<g id="XMLID_1246_">
			<path id="XMLID_1247_" fill="#FFFFFF" d="M112.838,379.048c-0.242,0-0.469-0.149-0.556-0.39
				c-8.387-23.091-25.851-46.456-40.622-54.349c-0.289-0.155-0.398-0.513-0.244-0.801c0.156-0.29,0.513-0.397,0.801-0.244
				c15.001,8.016,32.702,31.656,41.177,54.989c0.112,0.307-0.046,0.647-0.354,0.759
				C112.973,379.036,112.905,379.048,112.838,379.048z"/>
		</g>
		<g id="XMLID_1232_">
			<path id="XMLID_1245_" fill="#27DEBF" d="M112.838,401.16c0,0-6.182,5.489-16.71,7.156c-10.528,1.667-15.174-3.368-15.174-3.368
				s4.146-9.874,10.125-12.645c0,0-10.137,2.066-18.272,7.495c0,0-6.429,0.097-8.988-9.714c0,0,3.809-5.905,16.589-9.095
				c0,0-7.775-1.957-18.979,0.901c-0.84,0.334-4.422-12.352-5.505-18.205c-1.083-5.853,1.269-5.791,5.832-7.01
				c4.563-1.218,20.1-1.984,22.957,0.526c2.856,2.509,4.308,11.09,4.308,11.09s2.732-4.856,2.078-9.19c0,0,4.582-1.555,9.708,0.232
				c5.126,1.787,4.8,4.285,4.8,8.015c0,3.989-0.394,6.637-1.535,11.106c0,0,3.54-3.063,3.665-14.353c0,0,6.928,5.929,9.71,11.025
				C120.225,380.224,119.52,393.556,112.838,401.16z"/>
			<g id="XMLID_1243_">
				<path id="XMLID_1244_" fill="#FFFFFF" d="M112.838,401.752c-0.22,0-0.431-0.124-0.533-0.335
					c-8.496-17.651-40.082-38.161-51.397-40.361c-0.32-0.063-0.531-0.374-0.468-0.695c0.062-0.321,0.377-0.527,0.695-0.468
					c11.501,2.237,43.606,23.078,52.236,41.011c0.142,0.295,0.018,0.649-0.276,0.79
					C113.011,401.733,112.925,401.752,112.838,401.752z"/>
			</g>
		</g>
	</g>
</g>
<g id="Device">
	<g id="Device_1_">
		<g id="Device_2_">
			<path id="XMLID_1297_" fill="#37474F" d="M120.2,410.259l-3.073-1.774c-2.496-1.441-4.519-4.946-4.519-7.828v-269.29
				c0-2.882,2.023-6.386,4.519-7.827l124.197-71.706c2.496-1.441,6.542-1.441,9.038,0l3.076,1.775
				c2.496,1.441,4.519,4.945,4.519,7.827v269.289c0,2.882-2.023,6.387-4.519,7.827l-124.2,71.706
				C126.742,411.7,122.696,411.7,120.2,410.259z"/>
			<path id="XMLID_1296_" fill="#263238" d="M130.775,136.638l-16.844-9.725c-0.818,1.417-1.323,3.013-1.323,4.454v269.29
				c0,2.882,2.023,6.387,4.519,7.828l3.073,1.774c2.496,1.441,6.542,1.441,9.038,0l1.538-0.887V136.638z"/>
			<path id="XMLID_1295_" fill="#455A64" d="M124.719,138.36v269.29c0,2.882,2.023,4.05,4.519,2.609l124.2-71.706
				c2.496-1.441,4.519-4.945,4.519-7.827V61.436c0-2.882-2.023-4.05-4.519-2.609l-124.2,71.706
				C126.742,131.974,124.719,135.478,124.719,138.36z"/>
			<path id="XMLID_1294_" fill="#FAFAFA" d="M134.649,155.382l113.378-65.459c2.139-1.235,3.874-0.234,3.874,2.236v214.835
				c0,2.47-1.734,5.474-3.873,6.709L134.65,379.163c-2.139,1.235-3.874,0.234-3.874-2.236l-0.001-214.835
				C130.775,159.621,132.509,156.617,134.649,155.382z"/>
			<path id="XMLID_1276_" fill="#263238" d="M191.337,101.673c1.672-0.966,3.028-0.183,3.028,1.748c0,1.931-1.356,4.279-3.028,5.245
				c-1.672,0.965-3.028,0.183-3.028-1.748C188.309,104.986,189.665,102.638,191.337,101.673z"/>
			<g id="XMLID_1273_">
				<path id="XMLID_1275_" fill="#263238" d="M182.593,116.799c6.152-3.402,17.129-9.934,23.195-13.502
					c1.03-0.606,1.864-0.188,1.864,0.932c0,1.121-0.839,2.514-1.873,3.111l-23.234,13.419c-1.035,0.597-1.873,0.173-1.873-0.948
					C180.672,118.691,181.548,117.377,182.593,116.799z"/>
				<path id="XMLID_1274_" fill="#263238" d="M176.723,120.191c0.939-0.542,1.7-0.103,1.7,0.982c0,1.084-0.761,2.403-1.7,2.945
					c-0.939,0.542-1.7,0.103-1.7-0.982C175.023,122.052,175.784,120.733,176.723,120.191z"/>
			</g>
			<path id="XMLID_1272_" fill="#263238" d="M191.337,353.426c3.345-1.931,6.056-0.365,6.056,3.497c0,3.862-2.711,8.559-6.056,10.49
				c-3.345,1.931-6.056,0.366-6.056-3.497C185.281,360.054,187.993,355.358,191.337,353.426z"/>
		</g>
		<g id="Alert">
			<path id="XMLID_1382_" fill="#27DEBF" d="M233.449,248.579l-35.555-74.286c-0.295-0.616-0.625-1.015-0.957-1.207l0.001-0.004
				l-3.052-1.762l-0.001,0.004c-0.673-0.386-1.353,0.088-1.761,1.411l-36.583,118.677c-0.331,1.075-0.188,1.775,0.289,2.04
				l-0.006,0.02l3.049,1.761l0.006-0.02c0.401,0.221,1.033,0.139,1.851-0.333l71.09-41.044
				C233.614,252.801,234.343,250.447,233.449,248.579z"/>
			<path id="XMLID_1379_" opacity="0.1" d="M233.449,248.579l-35.555-74.286c-0.295-0.616-0.625-1.015-0.957-1.207l0.001-0.004
				l-3.052-1.762l-0.001,0.004c-0.673-0.386-1.353,0.088-1.761,1.411l-36.583,118.677c-0.331,1.075-0.188,1.775,0.289,2.04
				l-0.006,0.02l3.049,1.761l0.006-0.02c0.401,0.221,1.033,0.139,1.851-0.333l71.09-41.044
				C233.614,252.801,234.343,250.447,233.449,248.579z"/>
			<path id="XMLID_1378_" fill="#27DEBF" d="M158.587,293.172l36.583-118.677c0.61-1.979,1.829-2.069,2.724-0.201l35.555,74.286
				c0.894,1.868,0.165,4.222-1.629,5.258l-71.09,41.044C158.937,295.916,157.977,295.151,158.587,293.172z"/>
			<path id="XMLID_1383_" fill="#FFFFFF" d="M194.002,237.87l-0.898-20.168c-0.168-3.934-0.252-6.778-0.252-8.535
				c0-2.389,0.407-4.489,1.22-6.297c0.814-1.809,1.884-3.096,3.212-3.862c1.608-0.929,2.683-0.692,3.226,0.707
				c0.542,1.4,0.814,3.712,0.814,6.937c0,1.9-0.066,3.868-0.196,5.9l-1.206,21.988c-0.131,2.609-0.411,4.715-0.842,6.316
				c-0.43,1.602-1.141,2.688-2.132,3.261c-1.01,0.583-1.711,0.333-2.104-0.751C194.451,242.283,194.171,240.451,194.002,237.87z
				 M197.116,261.976c-1.141,0.659-2.137,0.665-2.988,0.019c-0.851-0.645-1.276-1.991-1.276-4.035c0-1.785,0.407-3.539,1.22-5.261
				c0.814-1.721,1.809-2.923,2.987-3.603c1.178-0.68,2.183-0.634,3.016,0.137c0.832,0.772,1.248,2.051,1.248,3.836
				c0,2.015-0.421,3.842-1.262,5.479C199.22,260.185,198.238,261.328,197.116,261.976z"/>
		</g>
	</g>
</g>
<g id="Character">
	<g id="Character_3_">
		<g id="XMLID_1528_">
			<path id="XMLID_1529_" fill="#FFA8A7" d="M424.141,165.242c-2.436,1.113-10.167,1.481-17.412,1.085
				c-8.548-0.468-19.042-4.024-23.324-6.176c-8.693-4.37-20.079-12.497-24.956-15.327c-4.877-2.829-7.602-1.947-10.449-0.27
				c-3.345,1.97-3.863,6.274,2.617,11.179c6.481,4.905,18.809,12.359,29.059,16.568c4.968,2.04,13.185,4.615,24.167,5.259
				c7.672,0.45,13.872,0.311,21.266-1.786C427.351,175.14,426.388,164.215,424.141,165.242z"/>
		</g>
		<g>
			<path id="XMLID_531_" fill="#E0E0E0" d="M416.003,165.551c-0.2,0.868-2.55,0.924-2.55,0.924s-1.701,2.194-1.239,6.721
				c0.462,4.528,1.855,5.27,1.855,5.27s6.524,0.727,13.105-2.912L416.003,165.551z"/>
			<path id="XMLID_394_" fill="#EBEBEB" d="M423.009,176.327c6.905-0.238,9.456-3.733,10.417-9.791
				c0.961-6.058,0.799-13.97,0.875-16.064c0.077-2.113-0.538-2.818-1.376-2.941c-0.315-0.046-1.648,0.296-1.796,2.534
				c-0.271,4.084-0.377,6.598-1.156,6.569c-0.775-0.028-0.652-3.057-0.59-7.185c0.041-2.779-0.046-5.126-1.599-5.126
				c-1.65,0-2.062,1.653-2.144,5.42c-0.082,3.766,0.022,6.546-0.989,6.621c-0.804,0.06-0.638-3.93-0.819-6.506
				c-0.182-2.595-0.176-4.111-1.784-4.078c-1.459,0.03-1.854,2.101-1.794,4.636c0.055,2.341,0.002,9.473-0.263,10.36
				c-0.446,1.493-1.989-2.172-3.117-3.676c-1.85-2.467-4.105-1.338-3.192,0.907c0.913,2.245,1.97,5.445,2.508,8.507
				C416.675,169.281,417.844,176.353,423.009,176.327z"/>
			<path id="XMLID_88_" fill="#E0E0E0" d="M422.983,163.816c0,0,4.158,4.331,2.657,8.956c0,0,2.269-2.647,0.744-6.202
				C425.348,164.152,422.983,163.816,422.983,163.816z"/>
		</g>
		<g id="XMLID_538_">
			<path id="XMLID_99_" fill="#27DEBF" d="M351.019,142.08c2.839,0.322,5.53-0.234,13.69,5.319
				c8.16,5.553,14.476,9.073,14.476,9.073s0.408,9.487-4.79,15.567c0,0-8.948-3.525-14.83-6.936
				C353.684,161.692,351.019,142.08,351.019,142.08z"/>
			<path id="XMLID_533_" opacity="0.05" d="M351.019,142.08c2.839,0.322,5.53-0.234,13.69,5.319
				c8.16,5.553,14.476,9.073,14.476,9.073s0.408,9.487-4.79,15.567c0,0-8.948-3.525-14.83-6.936
				C353.684,161.692,351.019,142.08,351.019,142.08z"/>
		</g>
		<g id="XMLID_1504_">
			<g id="XMLID_816_">
				<rect id="XMLID_1525_" x="318.641" y="344.833" fill="#FFA8A7" width="9.755" height="16.699"/>
				<polygon id="XMLID_1524_" fill="#FFA8A7" points="350.451,349.401 360.2,349.736 360.688,332.063 350.939,331.728 				"/>
				<path id="XMLID_1523_" fill="#263238" d="M319.281,212.457c0,9.315-0.01,67.473-0.01,67.473
					c-0.227,2.681-2.206,7.323-2.745,18.734c-0.66,13.989-1.232,52.329-1.232,52.329s7.282,4.708,13.74,0.174
					c0,0,8.658-54.98,10.406-68.839c1.526-12.095,4.114-44.954,4.114-44.954l3.399,50.295c0,0-1.591,9.092-1.94,15.509
					c-0.349,6.417,2.499,38.844,2.499,38.844s7.709,4.433,13.365,1.41c0,0,4.243-50.522,5.249-56.318
					c1.006-5.796-1.219-74.659-1.219-74.659H319.281z"/>
				<path id="XMLID_1506_" fill="#263238" d="M328.396,356.717v-1.395c0.933,0.407,3.102,8.681,6.972,12.211
					c3.077,2.807,7.274,6.048,8.342,9.177c1.111,3.254-5.845,5.051-8.72,4.542c-3.34-0.591-9.129-2.943-10.583-5.123
					c-1.453-2.18-2.134-5.397-3.315-6.995c-1.181-1.598-3.903-3.382-4.542-5.231c-0.351-1.016,0.066-3.241,0.559-5.121
					c0.452-1.725,0.942-3.621,1.531-3.46c0.002,0.21,0,1.064,0,1.064c0.708,0.785,2.667,1.564,4.877,1.649
					C324.945,358.089,328.407,357.806,328.396,356.717z"/>
				<path id="XMLID_1505_" fill="#263238" d="M360.303,346.728c0.507,0.018,0.919,0.732,2.036,1.941
					c1.35,1.462,3.559,3.038,5.738,4.129c3.653,1.828,10.754,4.641,13.968,6.089c2.008,0.905,1.914,3.33-0.162,4.71
					c-2.076,1.38-7.086,2.375-13.103,1.029c-3.278-0.733-7.544-3.76-10.245-3.597c-2.701,0.163-7.754,0.124-9.748-1.25
					c-1.993-1.374-1.196-4.309-0.632-6.83c0.615-2.752,1.495-6.963,2.406-6.775l-0.03,0.866c1.173,1.776,7.144,2.501,9.72,1.194
					L360.303,346.728z"/>
				<path id="XMLID_1501_" d="M343.554,237.375c0,0,7.797-2.196,13.584-7.789c0,0-2.621,4.908-10.416,9.475l-1.166,27.945
					L343.554,237.375z"/>
			</g>
			<path id="XMLID_1522_" fill="#27DEBF" d="M328.653,145.069c-1.312,0.233-2.834,0.46-4.027,0.928
				c-2.676,1.05-3.901,4.349-4.544,7.263c-0.462,2.093-0.801,4.589-0.801,7.407v19.113v32.677c6.841,7.442,30.688,10.909,45.626,0
				c0,0-0.293-45.745-1.412-53.26c-1.944-13.056-8.194-17.713-14.471-17.226l-15.058,2.155L328.653,145.069z"/>
			<g id="XMLID_546_">
				<path id="XMLID_541_" fill="#FFA8A7" d="M326.238,145.523c-4.681,0.68-9.368,0.362-14.335,7.323
					c-5.479,7.68-7.076,9.326-15.53,22.695c-3.235,5.116-6.866,10.25-6.708,11.726c0.467,4.367,8.288,15.398,16.05,22.784
					l7.854-6.778l-8.809-16.574c0,0,7.022-7.861,9.806-11.159c4.715-5.586,8.466-9.991,8.466-9.991
					C325.574,159.913,327.728,155.208,326.238,145.523z"/>
				<path id="XMLID_539_" fill="#27DEBF" d="M327.893,145.202c0,0-7.286-0.825-11.723,2.315
					c-4.438,3.141-16.904,21.683-16.904,21.683s3.378,9.581,12.636,11.467c0,0,9.258-10.988,11.707-14.23
					C326.293,162.886,329.26,155.669,327.893,145.202z"/>
				<path id="XMLID_540_" opacity="0.1" d="M327.893,145.202c0,0-7.286-0.825-11.723,2.315
					c-4.438,3.141-16.904,21.683-16.904,21.683s3.378,9.581,12.636,11.467c0,0,9.258-10.988,11.707-14.23
					C326.293,162.886,329.26,155.669,327.893,145.202z"/>
				<g id="XMLID_542_">
					<path id="XMLID_543_" fill="#EBEBEB" d="M339.405,215.68c-1.233,0.012-3.976,0.123-6.428-0.27
						c-2.453-0.393-6.722-1.902-6.812-2.684c-0.09-0.782,1.28-0.688,3.082-2.007c2.75-2.012,2.745-3.687,1.964-4.69
						c-0.606-0.779-2.17,0.591-4.494,1.611c-2.196,0.732-5.778,0.287-8.077-0.427c-2.302-0.715-5.319-5.319-5.319-5.319
						s-6.491,2.373-8.561,8.258c0,0,4.744,7.602,9.946,12.048c3.078,2.63,8.247,5.202,14.288,5.538
						c3.963,0.22,6.094-1.411,6.786-2.947c1.498-0.081,2.521-0.579,3.132-1.677c0.601-1.082-0.192-2.403-0.192-2.403
						C342.608,219.344,341.788,215.657,339.405,215.68z"/>
					<path id="XMLID_544_" fill="#E0E0E0" d="M338.72,220.711c-2.785,0.618-9.102,0.277-12.171-1.312c0,0,1.85,1.795,6.453,2.111
						c4.603,0.316,5.982-0.194,5.982-0.194C338.918,221.11,338.83,220.909,338.72,220.711z"/>
					<path id="XMLID_545_" fill="#E0E0E0" d="M335.78,224.791c-1.744,0.215-6.821,0.653-11.691-2.135c0,0,3.583,3.322,11.271,2.841
						C335.525,225.282,335.662,225.044,335.78,224.791z"/>
				</g>
			</g>
			<g id="XMLID_1507_">
				<g id="XMLID_1515_">
					<path id="XMLID_1521_" fill="#263238" d="M327.865,120.348c0,0,2.244,10.543,3.144,12.276c0.9,1.732,2.76,2.225,2.76,2.225
						l-0.157-7.417L327.865,120.348z"/>
					<path id="XMLID_1520_" fill="#263238" d="M330.682,105.244c0,0-2.417-0.414-4.301,1.512c-1.847,1.889-0.816,7.801,1.485,13.592
						l4.227,0.485L330.682,105.244z"/>
					<path id="XMLID_1519_" fill="#FFA8A7" d="M333.36,120.837c-0.848,0.506-2.057-1.122-3.102-2.216
						c-1.045-1.094-4.458-2.588-6.16,0.999c-1.734,3.656,1.503,8.485,4.189,9.329c4.63,1.453,5.325-1.517,5.325-1.517l0.353,16.7
						c0,0,6.044,6.418,14.253,7.531l0.81-7.972l-0.013-5.083c0,0,4.195,0.637,6.241,0.32c3.405-0.526,5.547-3.213,6.58-6.898
						c1.659-5.92,2.289-10.699,0.881-22.342c-1.543-12.761-16.385-12.893-24.399-7.849
						C330.304,106.884,333.36,120.837,333.36,120.837z"/>
					<path id="XMLID_1518_" fill="#263238" d="M333.36,122.263c-0.427,0.008-2.047-2.682-3.102-3.642
						c-1.462-1.33,0.424-13.377,0.424-13.377c1.754-8.27,16.082-9.428,24.088-6.796c4.153,1.287,6.845,3.157,6.685,6.67
						c-0.534,2.294-5.604,3.539-7.531,3.773c-5.423,0.66-13.762-0.794-14.917-0.952c-1.573-0.215-2.004,0.28-2.852,4.444
						C335.41,116.04,334.793,122.235,333.36,122.263z"/>
					<path id="XMLID_1517_" fill="#263238" d="M330.69,106.181l-5.125-2.751c0.727-1.469,2.464-2.043,3.88-1.283
						C330.86,102.906,331.417,104.712,330.69,106.181z"/>
					<path id="XMLID_1516_" fill="#F28F8F" d="M349.016,138.608c0,0-7.6-1.531-10.258-2.944c-1.778-0.945-3.243-2.584-3.673-3.634
						c0,0,0.498,2.255,2.087,4.287c1.943,2.484,11.844,4.314,11.844,4.314L349.016,138.608z"/>
				</g>
				<g id="XMLID_1508_">
					<path id="XMLID_1514_" fill="#263238" d="M347.671,120.333c0,0.874-0.682,1.581-1.523,1.578
						c-0.841-0.002-1.523-0.713-1.523-1.587c0-0.874,0.682-1.58,1.523-1.578C346.988,118.749,347.671,119.46,347.671,120.333z"/>
					<path id="XMLID_1513_" fill="#263238" d="M346.055,114.583l-3.258,1.798c-0.48-0.936-0.14-2.098,0.759-2.594
						C344.456,113.291,345.575,113.647,346.055,114.583z"/>
					<path id="XMLID_1511_" fill="#263238" d="M361.253,115.851l-2.971-2.288c0.606-0.851,1.763-1.028,2.583-0.396
						C361.685,113.798,361.859,115,361.253,115.851z"/>
					<path id="XMLID_1510_" fill="#263238" d="M360.338,119.9c0,0.874-0.682,1.58-1.523,1.578c-0.841-0.002-1.523-0.712-1.523-1.586
						c0-0.874,0.682-1.581,1.523-1.578C359.656,118.315,360.338,119.026,360.338,119.9z"/>
					<polygon id="XMLID_1509_" fill="#F28F8F" points="352.096,117.059 352.596,126.218 357.379,124.588 					"/>
				</g>
			</g>
		</g>
		<g id="XMLID_1485_">
			<path id="XMLID_1493_" fill="#263238" d="M338.176,110.309c0,0,12.879,7.002,24.369,2.479c11.802-4.645-0.722-9.731-0.722-9.731
				L338.176,110.309z"/>
			<g id="XMLID_1486_">
				<g id="XMLID_1490_">
					<path id="XMLID_1492_" fill="#27DEBF" d="M362.129,87.402c-8.91-1.977-18.638-3.021-30.326,1.762
						c-11.689,4.783-14.625,11.957-14.625,11.957s11.332,3.877,20.897,1.779C347.64,100.802,362.129,87.402,362.129,87.402z"/>
					<path id="XMLID_1491_" opacity="0.4" fill="#FFFFFF" d="M362.129,87.402c-8.91-1.977-18.638-3.021-30.326,1.762
						c-11.689,4.783-14.625,11.957-14.625,11.957s11.332,3.877,20.897,1.779C347.64,100.802,362.129,87.402,362.129,87.402z"/>
				</g>
				<path id="XMLID_1489_" fill="#27DEBF" d="M323.266,105.005c0,0-5.65-2.402-6.088-3.885c0,0,5.904,0.584,13.58-1.667
					c7.676-2.251,16.005-10,24.603-11.782c8.598-1.783,11.949,2.306,11.949,2.306s-2.272,6.127-5.447,9.943
					c0,0-2.996,5.852-13.105,7.758C338.651,109.584,323.266,105.005,323.266,105.005z"/>
				<path id="XMLID_1488_" fill="#37474F" d="M323.266,105.005l0.372,1.611c0.229,0.994,1.101,2.087,2.066,2.419
					c3.335,1.148,11.793,3.619,23.154,0.899c7.12-1.704,10.41-3.683,11.763-5.108c1.327-1.397,1.471-2.333,1.383-3.328l-0.139-1.578
					c0,0-2.368,3.136-14.021,6.048C336.19,108.88,323.266,105.005,323.266,105.005z"/>
				<path id="XMLID_1487_" fill="#FAFAFA" d="M356.029,90.983c-0.202,1.771-2.287,5.117-4.673,3.738c0,0-0.167,2.624-0.28,4.438
					c-0.171,2.762,1.404,3.612,4.08,2.909c2.887-0.759,4.699-3.136,4.963-5.891c0.081-0.842,0.245-3.823,0.245-3.823
					C358.243,95.137,355.947,91.664,356.029,90.983z"/>
			</g>
		</g>
		<g id="XMLID_1225_">
			<g id="XMLID_1224_">
				<path id="XMLID_1226_" fill="#E0E0E0" d="M353.824,151.421c-0.931,2.211-2.647,3.113-5.76,3.462
					c-3.113,0.349-6.894-1.193-8.611-2.996l3.872-3.854l4.885,3.618l0.441-4.04L353.824,151.421z"/>
			</g>
			<g id="XMLID_1095_">
				<path id="XMLID_1222_" fill="#F0F0F0" d="M349.938,157.862c0,0,5.008,18.573,5.212,20.817c0.204,2.244-4.183,14.212-6.104,14.28
					c-1.921,0.068-5.411-8.092-5.468-10.132c-0.057-2.04,3.013-24.602,3.013-24.602L349.938,157.862z"/>
				<path id="XMLID_1223_" fill="#F0F0F0" d="M351.386,150.214c0,0,0.19,2.186-0.065,4.195c-0.274,2.151-1.383,3.452-1.383,3.452
					s-1.236,0.982-3.346,0.364c-1.649-1.521-2.733-4.012-2.607-6.979l4.227,0.405L351.386,150.214z"/>
				<path id="XMLID_1096_" fill="#E0E0E0" d="M346.592,158.225c0,0,1.717,0.849,3.346-0.364l0.088,0.326c0,0-1.46,1.346-3.531,0.759
					L346.592,158.225z"/>
			</g>
			<g id="XMLID_550_">
				<g id="XMLID_855_">
					<path id="XMLID_1094_" fill="#27DEBF" d="M348.211,151.651l-14.171-10.617l-0.206-3.174c0,0-3.076,1.171-3.817,6.994
						c2.022,4.698,5.605,8.638,10.987,11.705l2.981-5.314L348.211,151.651z"/>
					<path id="XMLID_1087_" fill="#27DEBF" d="M349.016,139.193c0,0,3.248,0.46,4.671,2.807c1.42,2.342,1.095,11.299,1.095,11.299
						l-3.395-3.084l-3.175,1.437c0.303-2.984,0.812-7.954,0.812-7.954L349.016,139.193z"/>
				</g>
			</g>
			<g id="XMLID_1227_" opacity="0.1">
				<g id="XMLID_1228_">
					<path id="XMLID_1230_" d="M348.211,151.651l-14.171-10.617l-0.206-3.174c0,0-3.076,1.171-3.817,6.994
						c2.022,4.698,5.605,8.638,10.987,11.705l2.981-5.314L348.211,151.651z"/>
					<path id="XMLID_1229_" d="M349.016,139.193c0,0,3.248,0.46,4.671,2.807c1.42,2.342,1.095,11.299,1.095,11.299l-3.395-3.084
						l-3.175,1.437c0.303-2.984,0.812-7.954,0.812-7.954L349.016,139.193z"/>
				</g>
			</g>
		</g>
		<g id="XMLID_1242_">
			<path id="XMLID_1088_" fill="#455A64" d="M365.526,137.236c0-1.9-1.334-4.212-2.98-5.162c-0.812-0.469-1.546-0.515-2.084-0.217
				l-0.002-0.003l-0.02,0.011c-0.001,0.001-0.002,0.001-0.003,0.002l-3.026,1.748l4.256,7.274l2.984-1.723
				c0.001,0,0.002-0.001,0.003-0.001l0.009-0.005l-0.001-0.001C365.195,138.844,365.526,138.181,365.526,137.236z"/>
			<path id="XMLID_1398_" fill="#37474F" d="M359.565,133.795c1.646,0.95,2.98,3.261,2.98,5.162c0,1.901-1.334,2.671-2.98,1.721
				c-1.646-0.95-2.98-3.261-2.98-5.162C356.585,133.615,357.919,132.845,359.565,133.795z"/>
			<path id="XMLID_1089_" fill="#37474F" d="M353.605,130.354v0.987c0,0.405,0.285,0.898,0.635,1.101l5.325,3.074l0-1.721
				L353.605,130.354z"/>
			<polygon id="XMLID_1090_" fill="#455A64" points="356.585,128.633 353.605,130.354 359.565,133.795 362.546,132.074 			"/>
			<g id="XMLID_687_">
				<path id="XMLID_812_" fill="#E0E0E0" d="M364.904,130.79c0,0,0.185-0.517,0.463-1.293c0.29-0.77,0.677-1.796,1.064-2.823
					c0.387-1.026,0.756-2.061,1.101-2.806c0.089-0.185,0.17-0.355,0.242-0.505c0.08-0.147,0.123-0.287,0.216-0.376
					c0.18-0.181,0.477-0.195,0.477-0.195l0.196,0.09c0,0,0.183,0.235,0.163,0.489c-0.007,0.128-0.085,0.252-0.145,0.409
					c-0.067,0.153-0.143,0.325-0.225,0.513c-0.34,0.747-0.884,1.701-1.411,2.664c-0.527,0.962-1.053,1.925-1.448,2.647
					c-0.407,0.716-0.679,1.193-0.679,1.193L364.904,130.79z"/>
				<path id="XMLID_813_" fill="#E0E0E0" d="M367.446,133.181c0,0,0.476-0.274,1.19-0.685c0.72-0.399,1.679-0.93,2.639-1.462
					c0.96-0.531,1.911-1.081,2.656-1.424c0.187-0.084,0.359-0.16,0.512-0.228c0.156-0.06,0.28-0.139,0.408-0.147
					c0.254-0.021,0.49,0.161,0.49,0.161l0.091,0.195c0,0-0.013,0.297-0.192,0.478c-0.089,0.093-0.229,0.137-0.375,0.218
					c-0.15,0.073-0.319,0.155-0.504,0.245c-0.743,0.349-1.776,0.723-2.8,1.115c-1.025,0.392-2.049,0.784-2.818,1.078
					c-0.774,0.282-1.29,0.469-1.29,0.469L367.446,133.181z"/>
				<path id="XMLID_814_" fill="#E0E0E0" d="M367.614,136.979c0,0,0.544,0.075,1.36,0.188c0.813,0.126,1.897,0.295,2.981,0.463
					c1.084,0.169,2.172,0.318,2.972,0.504c0.199,0.049,0.382,0.094,0.544,0.134c0.16,0.048,0.306,0.062,0.412,0.134
					c0.214,0.14,0.288,0.428,0.288,0.428l-0.048,0.21c0,0-0.192,0.227-0.445,0.26c-0.127,0.019-0.265-0.032-0.43-0.058
					c-0.163-0.034-0.347-0.073-0.548-0.116c-0.801-0.18-1.846-0.517-2.896-0.836c-1.05-0.319-2.1-0.637-2.887-0.876
					c-0.784-0.252-1.307-0.42-1.307-0.42L367.614,136.979z"/>
				<path id="XMLID_815_" fill="#E0E0E0" d="M366.236,140.316c0,0,0.4,0.376,1,0.941c0.59,0.574,1.376,1.339,2.162,2.104
					c0.786,0.765,1.587,1.517,2.131,2.131c0.134,0.155,0.257,0.298,0.366,0.424c0.103,0.132,0.214,0.228,0.258,0.348
					c0.093,0.238-0.012,0.516-0.012,0.516l-0.161,0.143c0,0-0.288,0.074-0.514-0.046c-0.115-0.058-0.197-0.179-0.317-0.296
					c-0.113-0.122-0.241-0.261-0.38-0.412c-0.549-0.61-1.206-1.491-1.877-2.358c-0.671-0.868-1.343-1.735-1.846-2.386
					c-0.493-0.66-0.822-1.1-0.822-1.1L366.236,140.316z"/>
			</g>
			<g id="XMLID_681_">
				<polygon id="XMLID_8_" fill="#37474F" points="361.11,131.67 359.079,132.842 360.095,133.428 362.126,132.256 				"/>
				<polygon id="XMLID_680_" fill="#263238" points="359.079,132.842 361.11,131.67 361.11,132.051 359.41,133.033 				"/>
				<polygon id="XMLID_676_" points="361.11,132.052 361.795,132.447 362.126,132.256 361.11,131.67 				"/>
			</g>
		</g>
	</g>
</g>
</svg>
